<svg width="58" height="58" viewBox="0 0 58 58" fill="none" xmlns="http://www.w3.org/2000/svg">
  <path d="M0 7.04861C0 3.15577 3.15577 0 7.04861 0L50.9514 0C54.8442 0 58 3.15577 58 7.04861V50.9514C58 54.8442 54.8442 58 50.9514 58H7.04861C3.15577 58 0 54.8442 0 50.9514V7.04861Z" fill="#232323"/>
  <path d="M27.2633 6.94751C26.8098 7.2272 23.7199 10.1639 20.4317 13.4362C15.8962 17.9671 14.3938 19.6452 14.2237 20.3164C13.7985 22.3301 14.1103 22.7217 20.5734 29.1544C23.9467 32.5106 27.0365 35.4473 27.4617 35.671C28.4539 36.1745 30.0413 36.1745 31.0334 35.671C31.4586 35.4473 34.5485 32.5106 37.9217 29.1544C44.4699 22.6098 44.6683 22.3581 44.1014 20.2325C43.8462 19.3655 42.599 17.9671 37.8083 13.1565C34.4918 9.88419 31.4019 7.03142 30.8917 6.80767C29.6161 6.27627 28.2838 6.33221 27.2633 6.94751Z" fill="#31DABB"/>
  <path d="M8.42085 22.6141C7.68157 22.7803 7.05991 23.2625 6.63986 23.9609C6.32063 24.5095 6.30383 24.8753 6.25342 32.424C6.21982 37.0961 6.27023 38.339 6.37104 38.9708C6.72387 41.2154 7.17752 41.8472 11.6468 46.27C16.6201 51.1916 16.3345 51.0253 20.0309 51.1084C23.9961 51.2082 26.3819 51.1084 26.3819 51.1084C26.3819 51.1084 26.3819 48.3151 26.3819 47.305C26.3819 41.7184 26.2643 41.469 21.7615 36.9631C19.0396 34.2363 18.4683 33.7541 17.9475 33.6544C17.057 33.5047 16.5025 33.6876 15.8472 34.3361C15.3768 34.8016 15.2297 35.184 15.2297 35.8325C15.2297 36.2648 15.3936 36.6305 15.528 36.8799C15.6624 37.1293 16.5697 38.0937 17.5442 39.0414C18.5187 39.9892 19.3924 40.9037 19.4932 41.0699C19.9133 41.8514 19.5436 42.9155 18.7371 43.3146C17.9643 43.6637 17.6114 43.6305 16.8721 43.0818C15.9144 42.4001 12.7053 39.0747 12.3357 38.4096C12.05 37.8776 12.0164 37.279 11.9324 31.1769C11.8484 24.9252 11.8316 24.4929 11.5124 23.9775C10.8739 22.93 9.59698 22.3647 8.42085 22.6141Z" fill="#31DABB"/>
  <path d="M49.5791 22.815C50.3184 22.9801 50.9401 23.4589 51.3601 24.1523C51.6794 24.6972 51.6962 25.0604 51.7466 32.5559C51.7802 37.1951 51.7298 38.4292 51.629 39.0566C51.2761 41.2854 50.8225 41.9128 46.3532 46.3044C41.3799 51.1913 41.6655 51.0262 37.9691 51.1088C34.0039 51.2078 31.6181 51.1088 31.6181 51.1088C31.6181 51.1088 31.6181 48.3351 31.6181 47.3321C31.6181 41.7848 31.7357 41.5372 36.2385 37.063C38.9604 34.3554 39.5317 33.8766 40.0525 33.7776C40.943 33.629 41.4975 33.8106 42.1528 34.4545C42.6232 34.9168 42.7703 35.2965 42.7703 35.9403C42.7703 36.3696 42.6064 36.7328 42.472 36.9805C42.3376 37.2281 41.4303 38.1857 40.4558 39.1267C39.4813 40.0678 38.6076 40.9758 38.5068 41.1409C38.0867 41.9169 38.4564 42.9735 39.2629 43.3698C40.0357 43.7165 40.3886 43.6834 41.1279 43.1386C42.0856 42.4617 45.2947 39.1597 45.6643 38.4994C45.95 37.971 45.9836 37.3767 46.0676 31.3176C46.1516 25.1099 46.1684 24.6807 46.4876 24.1689C47.1261 23.1287 48.403 22.5674 49.5791 22.815Z" fill="#31DABB"/>
</svg>
